<mxfile host="app.diagrams.net" modified="2020-12-13T13:05:47.781Z" agent="5.0 (Windows)" etag="trtHRdbl4FGrxzvzW5MX" version="13.11.0" type="github">
  <diagram id="ZqiteXWSYMnH2DaOvwcG" name="Page-1">
    <mxGraphModel dx="3657" dy="1193" grid="1" gridSize="10" guides="1" tooltips="1" connect="1" arrows="1" fold="1" page="1" pageScale="1" pageWidth="1100" pageHeight="850" math="0" shadow="0">
      <root>
        <mxCell id="0" />
        <mxCell id="1" parent="0" />
        <mxCell id="tz5j9JFFTCA-K_ZaOIbP-49" style="edgeStyle=orthogonalEdgeStyle;rounded=0;orthogonalLoop=1;jettySize=auto;html=1;exitX=1;exitY=0.5;exitDx=0;exitDy=0;entryX=0;entryY=0.5;entryDx=0;entryDy=0;" edge="1" parent="1" source="tz5j9JFFTCA-K_ZaOIbP-1" target="tz5j9JFFTCA-K_ZaOIbP-11">
          <mxGeometry relative="1" as="geometry" />
        </mxCell>
        <mxCell id="tz5j9JFFTCA-K_ZaOIbP-50" style="edgeStyle=orthogonalEdgeStyle;rounded=0;orthogonalLoop=1;jettySize=auto;html=1;exitX=0.925;exitY=1;exitDx=0;exitDy=0;entryX=0.5;entryY=1;entryDx=0;entryDy=0;exitPerimeter=0;" edge="1" parent="1" source="tz5j9JFFTCA-K_ZaOIbP-1" target="tz5j9JFFTCA-K_ZaOIbP-10">
          <mxGeometry relative="1" as="geometry">
            <Array as="points">
              <mxPoint x="231" y="130" />
              <mxPoint x="580" y="130" />
            </Array>
          </mxGeometry>
        </mxCell>
        <mxCell id="tz5j9JFFTCA-K_ZaOIbP-51" style="edgeStyle=orthogonalEdgeStyle;rounded=0;orthogonalLoop=1;jettySize=auto;html=1;exitX=0.75;exitY=1;exitDx=0;exitDy=0;entryX=0.5;entryY=1;entryDx=0;entryDy=0;" edge="1" parent="1" source="tz5j9JFFTCA-K_ZaOIbP-1" target="tz5j9JFFTCA-K_ZaOIbP-9">
          <mxGeometry relative="1" as="geometry" />
        </mxCell>
        <mxCell id="tz5j9JFFTCA-K_ZaOIbP-57" style="edgeStyle=orthogonalEdgeStyle;rounded=0;orthogonalLoop=1;jettySize=auto;html=1;exitX=0.5;exitY=1;exitDx=0;exitDy=0;entryX=0.5;entryY=0;entryDx=0;entryDy=0;" edge="1" parent="1" source="tz5j9JFFTCA-K_ZaOIbP-1" target="tz5j9JFFTCA-K_ZaOIbP-7">
          <mxGeometry relative="1" as="geometry" />
        </mxCell>
        <mxCell id="tz5j9JFFTCA-K_ZaOIbP-1" value="Inicio sesiÃ³n" style="rounded=1;whiteSpace=wrap;html=1;" vertex="1" parent="1">
          <mxGeometry x="120" y="60" width="120" height="60" as="geometry" />
        </mxCell>
        <mxCell id="tz5j9JFFTCA-K_ZaOIbP-77" style="edgeStyle=orthogonalEdgeStyle;rounded=0;orthogonalLoop=1;jettySize=auto;html=1;exitX=1;exitY=0.5;exitDx=0;exitDy=0;entryX=0;entryY=0.5;entryDx=0;entryDy=0;" edge="1" parent="1" source="tz5j9JFFTCA-K_ZaOIbP-2" target="tz5j9JFFTCA-K_ZaOIbP-34">
          <mxGeometry relative="1" as="geometry" />
        </mxCell>
        <mxCell id="tz5j9JFFTCA-K_ZaOIbP-81" style="edgeStyle=orthogonalEdgeStyle;rounded=0;orthogonalLoop=1;jettySize=auto;html=1;exitX=0.5;exitY=1;exitDx=0;exitDy=0;entryX=0.5;entryY=1;entryDx=0;entryDy=0;" edge="1" parent="1" source="tz5j9JFFTCA-K_ZaOIbP-2" target="tz5j9JFFTCA-K_ZaOIbP-35">
          <mxGeometry relative="1" as="geometry">
            <Array as="points">
              <mxPoint x="180" y="730" />
              <mxPoint x="580" y="730" />
            </Array>
          </mxGeometry>
        </mxCell>
        <mxCell id="tz5j9JFFTCA-K_ZaOIbP-2" value="Proveedores" style="rounded=1;whiteSpace=wrap;html=1;" vertex="1" parent="1">
          <mxGeometry x="120" y="660" width="120" height="60" as="geometry" />
        </mxCell>
        <mxCell id="tz5j9JFFTCA-K_ZaOIbP-86" style="edgeStyle=orthogonalEdgeStyle;rounded=0;orthogonalLoop=1;jettySize=auto;html=1;exitX=1;exitY=0.5;exitDx=0;exitDy=0;entryX=0;entryY=0.5;entryDx=0;entryDy=0;" edge="1" parent="1" source="tz5j9JFFTCA-K_ZaOIbP-3" target="tz5j9JFFTCA-K_ZaOIbP-31">
          <mxGeometry relative="1" as="geometry" />
        </mxCell>
        <mxCell id="tz5j9JFFTCA-K_ZaOIbP-88" style="edgeStyle=orthogonalEdgeStyle;rounded=0;orthogonalLoop=1;jettySize=auto;html=1;exitX=0.5;exitY=1;exitDx=0;exitDy=0;entryX=0.5;entryY=1;entryDx=0;entryDy=0;" edge="1" parent="1" source="tz5j9JFFTCA-K_ZaOIbP-3" target="tz5j9JFFTCA-K_ZaOIbP-32">
          <mxGeometry relative="1" as="geometry">
            <Array as="points">
              <mxPoint x="180" y="630" />
              <mxPoint x="580" y="630" />
            </Array>
          </mxGeometry>
        </mxCell>
        <mxCell id="tz5j9JFFTCA-K_ZaOIbP-3" value="Pedidos" style="rounded=1;whiteSpace=wrap;html=1;" vertex="1" parent="1">
          <mxGeometry x="120" y="560" width="120" height="60" as="geometry" />
        </mxCell>
        <mxCell id="tz5j9JFFTCA-K_ZaOIbP-90" style="edgeStyle=orthogonalEdgeStyle;rounded=0;orthogonalLoop=1;jettySize=auto;html=1;exitX=1;exitY=0.5;exitDx=0;exitDy=0;" edge="1" parent="1" source="tz5j9JFFTCA-K_ZaOIbP-4" target="tz5j9JFFTCA-K_ZaOIbP-30">
          <mxGeometry relative="1" as="geometry" />
        </mxCell>
        <mxCell id="tz5j9JFFTCA-K_ZaOIbP-92" style="edgeStyle=orthogonalEdgeStyle;rounded=0;orthogonalLoop=1;jettySize=auto;html=1;exitX=0.5;exitY=1;exitDx=0;exitDy=0;entryX=0.5;entryY=1;entryDx=0;entryDy=0;" edge="1" parent="1" source="tz5j9JFFTCA-K_ZaOIbP-4" target="tz5j9JFFTCA-K_ZaOIbP-29">
          <mxGeometry relative="1" as="geometry">
            <Array as="points">
              <mxPoint x="180" y="530" />
              <mxPoint x="580" y="530" />
            </Array>
          </mxGeometry>
        </mxCell>
        <mxCell id="tz5j9JFFTCA-K_ZaOIbP-4" value="Productos" style="rounded=1;whiteSpace=wrap;html=1;" vertex="1" parent="1">
          <mxGeometry x="120" y="460" width="120" height="60" as="geometry" />
        </mxCell>
        <mxCell id="tz5j9JFFTCA-K_ZaOIbP-103" style="edgeStyle=orthogonalEdgeStyle;rounded=0;orthogonalLoop=1;jettySize=auto;html=1;exitX=1;exitY=0.5;exitDx=0;exitDy=0;" edge="1" parent="1" source="tz5j9JFFTCA-K_ZaOIbP-5" target="tz5j9JFFTCA-K_ZaOIbP-18">
          <mxGeometry relative="1" as="geometry" />
        </mxCell>
        <mxCell id="tz5j9JFFTCA-K_ZaOIbP-105" style="edgeStyle=orthogonalEdgeStyle;rounded=0;orthogonalLoop=1;jettySize=auto;html=1;exitX=0.5;exitY=1;exitDx=0;exitDy=0;entryX=0.5;entryY=1;entryDx=0;entryDy=0;" edge="1" parent="1" source="tz5j9JFFTCA-K_ZaOIbP-5" target="tz5j9JFFTCA-K_ZaOIbP-21">
          <mxGeometry relative="1" as="geometry">
            <Array as="points">
              <mxPoint x="180" y="430" />
              <mxPoint x="580" y="430" />
            </Array>
          </mxGeometry>
        </mxCell>
        <mxCell id="tz5j9JFFTCA-K_ZaOIbP-5" value="Proyectos" style="rounded=1;whiteSpace=wrap;html=1;" vertex="1" parent="1">
          <mxGeometry x="120" y="360" width="120" height="60" as="geometry" />
        </mxCell>
        <mxCell id="tz5j9JFFTCA-K_ZaOIbP-62" style="edgeStyle=orthogonalEdgeStyle;rounded=0;orthogonalLoop=1;jettySize=auto;html=1;entryX=0;entryY=0.5;entryDx=0;entryDy=0;" edge="1" parent="1" source="tz5j9JFFTCA-K_ZaOIbP-63" target="tz5j9JFFTCA-K_ZaOIbP-7">
          <mxGeometry relative="1" as="geometry">
            <mxPoint x="50" y="190" as="sourcePoint" />
          </mxGeometry>
        </mxCell>
        <mxCell id="tz5j9JFFTCA-K_ZaOIbP-119" style="edgeStyle=orthogonalEdgeStyle;rounded=0;orthogonalLoop=1;jettySize=auto;html=1;exitX=1;exitY=0.5;exitDx=0;exitDy=0;" edge="1" parent="1" source="tz5j9JFFTCA-K_ZaOIbP-6" target="tz5j9JFFTCA-K_ZaOIbP-17">
          <mxGeometry relative="1" as="geometry" />
        </mxCell>
        <mxCell id="tz5j9JFFTCA-K_ZaOIbP-6" value="Usuarios" style="rounded=1;whiteSpace=wrap;html=1;" vertex="1" parent="1">
          <mxGeometry x="120" y="260" width="120" height="60" as="geometry" />
        </mxCell>
        <mxCell id="tz5j9JFFTCA-K_ZaOIbP-58" style="edgeStyle=orthogonalEdgeStyle;rounded=0;orthogonalLoop=1;jettySize=auto;html=1;exitX=1;exitY=0.5;exitDx=0;exitDy=0;entryX=0;entryY=0.5;entryDx=0;entryDy=0;" edge="1" parent="1" source="tz5j9JFFTCA-K_ZaOIbP-7" target="tz5j9JFFTCA-K_ZaOIbP-55">
          <mxGeometry relative="1" as="geometry" />
        </mxCell>
        <mxCell id="tz5j9JFFTCA-K_ZaOIbP-66" style="edgeStyle=orthogonalEdgeStyle;rounded=0;orthogonalLoop=1;jettySize=auto;html=1;exitX=0.5;exitY=1;exitDx=0;exitDy=0;entryX=0.5;entryY=0;entryDx=0;entryDy=0;" edge="1" parent="1" source="tz5j9JFFTCA-K_ZaOIbP-7" target="tz5j9JFFTCA-K_ZaOIbP-6">
          <mxGeometry relative="1" as="geometry" />
        </mxCell>
        <mxCell id="tz5j9JFFTCA-K_ZaOIbP-67" style="edgeStyle=orthogonalEdgeStyle;rounded=0;orthogonalLoop=1;jettySize=auto;html=1;exitX=0.25;exitY=1;exitDx=0;exitDy=0;entryX=0;entryY=0.25;entryDx=0;entryDy=0;" edge="1" parent="1" source="tz5j9JFFTCA-K_ZaOIbP-7" target="tz5j9JFFTCA-K_ZaOIbP-5">
          <mxGeometry relative="1" as="geometry">
            <Array as="points">
              <mxPoint x="150" y="240" />
              <mxPoint x="110" y="240" />
              <mxPoint x="110" y="375" />
            </Array>
          </mxGeometry>
        </mxCell>
        <mxCell id="tz5j9JFFTCA-K_ZaOIbP-68" style="edgeStyle=orthogonalEdgeStyle;rounded=0;orthogonalLoop=1;jettySize=auto;html=1;exitX=0;exitY=0.75;exitDx=0;exitDy=0;" edge="1" parent="1" source="tz5j9JFFTCA-K_ZaOIbP-7">
          <mxGeometry relative="1" as="geometry">
            <mxPoint x="120" y="490" as="targetPoint" />
            <Array as="points">
              <mxPoint x="90" y="205" />
              <mxPoint x="90" y="490" />
            </Array>
          </mxGeometry>
        </mxCell>
        <mxCell id="tz5j9JFFTCA-K_ZaOIbP-69" style="edgeStyle=orthogonalEdgeStyle;rounded=0;orthogonalLoop=1;jettySize=auto;html=1;exitX=0;exitY=0.75;exitDx=0;exitDy=0;entryX=0;entryY=0.5;entryDx=0;entryDy=0;" edge="1" parent="1" source="tz5j9JFFTCA-K_ZaOIbP-7" target="tz5j9JFFTCA-K_ZaOIbP-3">
          <mxGeometry relative="1" as="geometry">
            <Array as="points">
              <mxPoint x="70" y="205" />
              <mxPoint x="70" y="590" />
            </Array>
          </mxGeometry>
        </mxCell>
        <mxCell id="tz5j9JFFTCA-K_ZaOIbP-70" style="edgeStyle=orthogonalEdgeStyle;rounded=0;orthogonalLoop=1;jettySize=auto;html=1;exitX=0;exitY=0.75;exitDx=0;exitDy=0;entryX=0;entryY=0.5;entryDx=0;entryDy=0;" edge="1" parent="1" source="tz5j9JFFTCA-K_ZaOIbP-7" target="tz5j9JFFTCA-K_ZaOIbP-2">
          <mxGeometry relative="1" as="geometry">
            <mxPoint x="60" y="700" as="targetPoint" />
            <Array as="points">
              <mxPoint x="50" y="205" />
              <mxPoint x="50" y="690" />
            </Array>
          </mxGeometry>
        </mxCell>
        <mxCell id="tz5j9JFFTCA-K_ZaOIbP-7" value="&lt;div&gt;PÃ¡gina principal&lt;/div&gt;" style="rounded=1;whiteSpace=wrap;html=1;" vertex="1" parent="1">
          <mxGeometry x="120" y="160" width="120" height="60" as="geometry" />
        </mxCell>
        <mxCell id="tz5j9JFFTCA-K_ZaOIbP-54" style="edgeStyle=orthogonalEdgeStyle;rounded=0;orthogonalLoop=1;jettySize=auto;html=1;exitX=0.5;exitY=0;exitDx=0;exitDy=0;entryX=0.25;entryY=0;entryDx=0;entryDy=0;" edge="1" parent="1" source="tz5j9JFFTCA-K_ZaOIbP-9" target="tz5j9JFFTCA-K_ZaOIbP-1">
          <mxGeometry relative="1" as="geometry">
            <Array as="points">
              <mxPoint x="780" y="30" />
              <mxPoint x="150" y="30" />
            </Array>
          </mxGeometry>
        </mxCell>
        <mxCell id="tz5j9JFFTCA-K_ZaOIbP-9" value="Sobre el laboratorio " style="rounded=1;whiteSpace=wrap;html=1;" vertex="1" parent="1">
          <mxGeometry x="720" y="60" width="120" height="60" as="geometry" />
        </mxCell>
        <mxCell id="tz5j9JFFTCA-K_ZaOIbP-53" style="edgeStyle=orthogonalEdgeStyle;rounded=0;orthogonalLoop=1;jettySize=auto;html=1;exitX=0.5;exitY=0;exitDx=0;exitDy=0;entryX=0.5;entryY=0;entryDx=0;entryDy=0;" edge="1" parent="1" source="tz5j9JFFTCA-K_ZaOIbP-10" target="tz5j9JFFTCA-K_ZaOIbP-1">
          <mxGeometry relative="1" as="geometry">
            <Array as="points">
              <mxPoint x="580" y="40" />
              <mxPoint x="180" y="40" />
            </Array>
          </mxGeometry>
        </mxCell>
        <mxCell id="tz5j9JFFTCA-K_ZaOIbP-10" value="Sobre nosotros" style="rounded=1;whiteSpace=wrap;html=1;" vertex="1" parent="1">
          <mxGeometry x="520" y="60" width="120" height="60" as="geometry" />
        </mxCell>
        <mxCell id="tz5j9JFFTCA-K_ZaOIbP-52" style="edgeStyle=orthogonalEdgeStyle;rounded=0;orthogonalLoop=1;jettySize=auto;html=1;exitX=0;exitY=0.75;exitDx=0;exitDy=0;entryX=1;entryY=0.75;entryDx=0;entryDy=0;" edge="1" parent="1" source="tz5j9JFFTCA-K_ZaOIbP-11" target="tz5j9JFFTCA-K_ZaOIbP-1">
          <mxGeometry relative="1" as="geometry" />
        </mxCell>
        <mxCell id="tz5j9JFFTCA-K_ZaOIbP-11" value="Registro" style="rounded=1;whiteSpace=wrap;html=1;" vertex="1" parent="1">
          <mxGeometry x="320" y="60" width="120" height="60" as="geometry" />
        </mxCell>
        <mxCell id="tz5j9JFFTCA-K_ZaOIbP-15" value="Alertas" style="rounded=1;whiteSpace=wrap;html=1;" vertex="1" parent="1">
          <mxGeometry x="120" y="860" width="120" height="60" as="geometry" />
        </mxCell>
        <mxCell id="tz5j9JFFTCA-K_ZaOIbP-75" style="edgeStyle=orthogonalEdgeStyle;rounded=0;orthogonalLoop=1;jettySize=auto;html=1;exitX=1;exitY=0.5;exitDx=0;exitDy=0;" edge="1" parent="1" source="tz5j9JFFTCA-K_ZaOIbP-16" target="tz5j9JFFTCA-K_ZaOIbP-38">
          <mxGeometry relative="1" as="geometry" />
        </mxCell>
        <mxCell id="tz5j9JFFTCA-K_ZaOIbP-16" value="Mi perfil" style="rounded=1;whiteSpace=wrap;html=1;" vertex="1" parent="1">
          <mxGeometry x="120" y="760" width="120" height="60" as="geometry" />
        </mxCell>
        <mxCell id="tz5j9JFFTCA-K_ZaOIbP-120" style="edgeStyle=orthogonalEdgeStyle;rounded=0;orthogonalLoop=1;jettySize=auto;html=1;exitX=0;exitY=0.75;exitDx=0;exitDy=0;entryX=1;entryY=0.75;entryDx=0;entryDy=0;" edge="1" parent="1" source="tz5j9JFFTCA-K_ZaOIbP-17" target="tz5j9JFFTCA-K_ZaOIbP-6">
          <mxGeometry relative="1" as="geometry" />
        </mxCell>
        <mxCell id="tz5j9JFFTCA-K_ZaOIbP-17" value="Detalles usuario" style="rounded=1;whiteSpace=wrap;html=1;" vertex="1" parent="1">
          <mxGeometry x="320" y="260" width="120" height="60" as="geometry" />
        </mxCell>
        <mxCell id="tz5j9JFFTCA-K_ZaOIbP-104" style="edgeStyle=orthogonalEdgeStyle;rounded=0;orthogonalLoop=1;jettySize=auto;html=1;exitX=0;exitY=0.75;exitDx=0;exitDy=0;entryX=1;entryY=0.75;entryDx=0;entryDy=0;" edge="1" parent="1" source="tz5j9JFFTCA-K_ZaOIbP-18" target="tz5j9JFFTCA-K_ZaOIbP-5">
          <mxGeometry relative="1" as="geometry" />
        </mxCell>
        <mxCell id="tz5j9JFFTCA-K_ZaOIbP-18" value="AÃ±adir proyecto" style="rounded=1;whiteSpace=wrap;html=1;" vertex="1" parent="1">
          <mxGeometry x="320" y="360" width="120" height="60" as="geometry" />
        </mxCell>
        <mxCell id="tz5j9JFFTCA-K_ZaOIbP-80" style="edgeStyle=orthogonalEdgeStyle;rounded=0;orthogonalLoop=1;jettySize=auto;html=1;exitX=0.5;exitY=0;exitDx=0;exitDy=0;entryX=0.5;entryY=0;entryDx=0;entryDy=0;" edge="1" parent="1" source="tz5j9JFFTCA-K_ZaOIbP-19" target="tz5j9JFFTCA-K_ZaOIbP-55">
          <mxGeometry relative="1" as="geometry">
            <Array as="points">
              <mxPoint x="780" y="150" />
              <mxPoint x="380" y="150" />
            </Array>
          </mxGeometry>
        </mxCell>
        <mxCell id="tz5j9JFFTCA-K_ZaOIbP-19" value="Editar tÃ©cnica" style="rounded=1;whiteSpace=wrap;html=1;" vertex="1" parent="1">
          <mxGeometry x="720" y="160" width="120" height="60" as="geometry" />
        </mxCell>
        <mxCell id="tz5j9JFFTCA-K_ZaOIbP-106" style="edgeStyle=orthogonalEdgeStyle;rounded=0;orthogonalLoop=1;jettySize=auto;html=1;exitX=0.5;exitY=0;exitDx=0;exitDy=0;entryX=0.5;entryY=0;entryDx=0;entryDy=0;" edge="1" parent="1" source="tz5j9JFFTCA-K_ZaOIbP-21" target="tz5j9JFFTCA-K_ZaOIbP-5">
          <mxGeometry relative="1" as="geometry">
            <Array as="points">
              <mxPoint x="580" y="350" />
              <mxPoint x="180" y="350" />
            </Array>
          </mxGeometry>
        </mxCell>
        <mxCell id="tz5j9JFFTCA-K_ZaOIbP-109" style="edgeStyle=orthogonalEdgeStyle;rounded=0;orthogonalLoop=1;jettySize=auto;html=1;exitX=1;exitY=0.5;exitDx=0;exitDy=0;entryX=0;entryY=0.5;entryDx=0;entryDy=0;" edge="1" parent="1" source="tz5j9JFFTCA-K_ZaOIbP-21" target="tz5j9JFFTCA-K_ZaOIbP-107">
          <mxGeometry relative="1" as="geometry" />
        </mxCell>
        <mxCell id="tz5j9JFFTCA-K_ZaOIbP-111" style="edgeStyle=orthogonalEdgeStyle;rounded=0;orthogonalLoop=1;jettySize=auto;html=1;exitX=0.75;exitY=1;exitDx=0;exitDy=0;entryX=0.5;entryY=1;entryDx=0;entryDy=0;" edge="1" parent="1" source="tz5j9JFFTCA-K_ZaOIbP-21" target="tz5j9JFFTCA-K_ZaOIbP-108">
          <mxGeometry relative="1" as="geometry">
            <Array as="points">
              <mxPoint x="610" y="430" />
              <mxPoint x="980" y="430" />
            </Array>
          </mxGeometry>
        </mxCell>
        <mxCell id="tz5j9JFFTCA-K_ZaOIbP-21" value="Detalles proyecto" style="rounded=1;whiteSpace=wrap;html=1;" vertex="1" parent="1">
          <mxGeometry x="520" y="360" width="120" height="60" as="geometry" />
        </mxCell>
        <mxCell id="tz5j9JFFTCA-K_ZaOIbP-102" style="edgeStyle=orthogonalEdgeStyle;rounded=0;orthogonalLoop=1;jettySize=auto;html=1;exitX=0.5;exitY=0;exitDx=0;exitDy=0;entryX=0.5;entryY=0;entryDx=0;entryDy=0;" edge="1" parent="1" source="tz5j9JFFTCA-K_ZaOIbP-25" target="tz5j9JFFTCA-K_ZaOIbP-28">
          <mxGeometry relative="1" as="geometry">
            <Array as="points">
              <mxPoint x="1180" y="450" />
              <mxPoint x="780" y="450" />
            </Array>
          </mxGeometry>
        </mxCell>
        <mxCell id="tz5j9JFFTCA-K_ZaOIbP-25" value="Editar ejemplar" style="rounded=1;whiteSpace=wrap;html=1;" vertex="1" parent="1">
          <mxGeometry x="1120" y="460" width="120" height="60" as="geometry" />
        </mxCell>
        <mxCell id="tz5j9JFFTCA-K_ZaOIbP-100" style="edgeStyle=orthogonalEdgeStyle;rounded=0;orthogonalLoop=1;jettySize=auto;html=1;exitX=0.25;exitY=0;exitDx=0;exitDy=0;entryX=0.75;entryY=1;entryDx=0;entryDy=0;" edge="1" parent="1" source="tz5j9JFFTCA-K_ZaOIbP-26" target="tz5j9JFFTCA-K_ZaOIbP-29">
          <mxGeometry relative="1" as="geometry">
            <Array as="points">
              <mxPoint x="750" y="550" />
              <mxPoint x="610" y="550" />
            </Array>
          </mxGeometry>
        </mxCell>
        <mxCell id="tz5j9JFFTCA-K_ZaOIbP-26" value="Editar producto" style="rounded=1;whiteSpace=wrap;html=1;" vertex="1" parent="1">
          <mxGeometry x="720" y="560" width="120" height="60" as="geometry" />
        </mxCell>
        <mxCell id="tz5j9JFFTCA-K_ZaOIbP-98" style="edgeStyle=orthogonalEdgeStyle;rounded=0;orthogonalLoop=1;jettySize=auto;html=1;exitX=0;exitY=0.75;exitDx=0;exitDy=0;entryX=1;entryY=0.75;entryDx=0;entryDy=0;" edge="1" parent="1" source="tz5j9JFFTCA-K_ZaOIbP-27" target="tz5j9JFFTCA-K_ZaOIbP-28">
          <mxGeometry relative="1" as="geometry" />
        </mxCell>
        <mxCell id="tz5j9JFFTCA-K_ZaOIbP-27" value="AÃ±adir ejemplar" style="rounded=1;whiteSpace=wrap;html=1;" vertex="1" parent="1">
          <mxGeometry x="920" y="460" width="120" height="60" as="geometry" />
        </mxCell>
        <mxCell id="tz5j9JFFTCA-K_ZaOIbP-96" style="edgeStyle=orthogonalEdgeStyle;rounded=0;orthogonalLoop=1;jettySize=auto;html=1;exitX=0;exitY=0.75;exitDx=0;exitDy=0;entryX=1;entryY=0.75;entryDx=0;entryDy=0;" edge="1" parent="1" source="tz5j9JFFTCA-K_ZaOIbP-28" target="tz5j9JFFTCA-K_ZaOIbP-29">
          <mxGeometry relative="1" as="geometry" />
        </mxCell>
        <mxCell id="tz5j9JFFTCA-K_ZaOIbP-97" style="edgeStyle=orthogonalEdgeStyle;rounded=0;orthogonalLoop=1;jettySize=auto;html=1;exitX=1;exitY=0.5;exitDx=0;exitDy=0;entryX=0;entryY=0.5;entryDx=0;entryDy=0;" edge="1" parent="1" source="tz5j9JFFTCA-K_ZaOIbP-28" target="tz5j9JFFTCA-K_ZaOIbP-27">
          <mxGeometry relative="1" as="geometry" />
        </mxCell>
        <mxCell id="tz5j9JFFTCA-K_ZaOIbP-101" style="edgeStyle=orthogonalEdgeStyle;rounded=0;orthogonalLoop=1;jettySize=auto;html=1;exitX=0.5;exitY=1;exitDx=0;exitDy=0;entryX=0.5;entryY=1;entryDx=0;entryDy=0;" edge="1" parent="1" source="tz5j9JFFTCA-K_ZaOIbP-28" target="tz5j9JFFTCA-K_ZaOIbP-25">
          <mxGeometry relative="1" as="geometry">
            <Array as="points">
              <mxPoint x="780" y="530" />
              <mxPoint x="1180" y="530" />
            </Array>
          </mxGeometry>
        </mxCell>
        <mxCell id="tz5j9JFFTCA-K_ZaOIbP-28" value="Ejemplares" style="rounded=1;whiteSpace=wrap;html=1;" vertex="1" parent="1">
          <mxGeometry x="720" y="460" width="120" height="60" as="geometry" />
        </mxCell>
        <mxCell id="tz5j9JFFTCA-K_ZaOIbP-93" style="edgeStyle=orthogonalEdgeStyle;rounded=0;orthogonalLoop=1;jettySize=auto;html=1;exitX=0.5;exitY=0;exitDx=0;exitDy=0;entryX=0.5;entryY=0;entryDx=0;entryDy=0;" edge="1" parent="1" source="tz5j9JFFTCA-K_ZaOIbP-29" target="tz5j9JFFTCA-K_ZaOIbP-4">
          <mxGeometry relative="1" as="geometry">
            <Array as="points">
              <mxPoint x="580" y="450" />
              <mxPoint x="180" y="450" />
            </Array>
          </mxGeometry>
        </mxCell>
        <mxCell id="tz5j9JFFTCA-K_ZaOIbP-95" style="edgeStyle=orthogonalEdgeStyle;rounded=0;orthogonalLoop=1;jettySize=auto;html=1;exitX=1;exitY=0.5;exitDx=0;exitDy=0;entryX=0;entryY=0.5;entryDx=0;entryDy=0;" edge="1" parent="1" source="tz5j9JFFTCA-K_ZaOIbP-29" target="tz5j9JFFTCA-K_ZaOIbP-28">
          <mxGeometry relative="1" as="geometry" />
        </mxCell>
        <mxCell id="tz5j9JFFTCA-K_ZaOIbP-99" style="edgeStyle=orthogonalEdgeStyle;rounded=0;orthogonalLoop=1;jettySize=auto;html=1;entryX=0.5;entryY=0;entryDx=0;entryDy=0;" edge="1" parent="1" target="tz5j9JFFTCA-K_ZaOIbP-26">
          <mxGeometry relative="1" as="geometry">
            <mxPoint x="620" y="520" as="sourcePoint" />
            <Array as="points">
              <mxPoint x="627" y="540" />
              <mxPoint x="780" y="540" />
            </Array>
          </mxGeometry>
        </mxCell>
        <mxCell id="tz5j9JFFTCA-K_ZaOIbP-29" value="Detalles producto" style="rounded=1;whiteSpace=wrap;html=1;" vertex="1" parent="1">
          <mxGeometry x="520" y="460" width="120" height="60" as="geometry" />
        </mxCell>
        <mxCell id="tz5j9JFFTCA-K_ZaOIbP-91" style="edgeStyle=orthogonalEdgeStyle;rounded=0;orthogonalLoop=1;jettySize=auto;html=1;exitX=0;exitY=0.75;exitDx=0;exitDy=0;entryX=1;entryY=0.75;entryDx=0;entryDy=0;" edge="1" parent="1" source="tz5j9JFFTCA-K_ZaOIbP-30" target="tz5j9JFFTCA-K_ZaOIbP-4">
          <mxGeometry relative="1" as="geometry" />
        </mxCell>
        <mxCell id="tz5j9JFFTCA-K_ZaOIbP-30" value="AÃ±adir producto" style="rounded=1;whiteSpace=wrap;html=1;" vertex="1" parent="1">
          <mxGeometry x="320" y="460" width="120" height="60" as="geometry" />
        </mxCell>
        <mxCell id="tz5j9JFFTCA-K_ZaOIbP-87" style="edgeStyle=orthogonalEdgeStyle;rounded=0;orthogonalLoop=1;jettySize=auto;html=1;exitX=0;exitY=0.75;exitDx=0;exitDy=0;entryX=1;entryY=0.75;entryDx=0;entryDy=0;" edge="1" parent="1" source="tz5j9JFFTCA-K_ZaOIbP-31" target="tz5j9JFFTCA-K_ZaOIbP-3">
          <mxGeometry relative="1" as="geometry" />
        </mxCell>
        <mxCell id="tz5j9JFFTCA-K_ZaOIbP-31" value="AÃ±adir pedido" style="rounded=1;whiteSpace=wrap;html=1;" vertex="1" parent="1">
          <mxGeometry x="320" y="560" width="120" height="60" as="geometry" />
        </mxCell>
        <mxCell id="tz5j9JFFTCA-K_ZaOIbP-89" style="edgeStyle=orthogonalEdgeStyle;rounded=0;orthogonalLoop=1;jettySize=auto;html=1;exitX=0.5;exitY=0;exitDx=0;exitDy=0;entryX=0.5;entryY=0;entryDx=0;entryDy=0;" edge="1" parent="1" source="tz5j9JFFTCA-K_ZaOIbP-32" target="tz5j9JFFTCA-K_ZaOIbP-3">
          <mxGeometry relative="1" as="geometry">
            <Array as="points">
              <mxPoint x="580" y="550" />
              <mxPoint x="180" y="550" />
            </Array>
          </mxGeometry>
        </mxCell>
        <mxCell id="tz5j9JFFTCA-K_ZaOIbP-32" value="Detalles pedido" style="rounded=1;whiteSpace=wrap;html=1;" vertex="1" parent="1">
          <mxGeometry x="520" y="560" width="120" height="60" as="geometry" />
        </mxCell>
        <mxCell id="tz5j9JFFTCA-K_ZaOIbP-78" style="edgeStyle=orthogonalEdgeStyle;rounded=0;orthogonalLoop=1;jettySize=auto;html=1;exitX=0;exitY=0.75;exitDx=0;exitDy=0;entryX=1;entryY=0.75;entryDx=0;entryDy=0;" edge="1" parent="1" source="tz5j9JFFTCA-K_ZaOIbP-34" target="tz5j9JFFTCA-K_ZaOIbP-2">
          <mxGeometry relative="1" as="geometry" />
        </mxCell>
        <mxCell id="tz5j9JFFTCA-K_ZaOIbP-34" value="AÃ±adir Proveedor" style="rounded=1;whiteSpace=wrap;html=1;" vertex="1" parent="1">
          <mxGeometry x="320" y="660" width="120" height="60" as="geometry" />
        </mxCell>
        <mxCell id="tz5j9JFFTCA-K_ZaOIbP-82" style="edgeStyle=orthogonalEdgeStyle;rounded=0;orthogonalLoop=1;jettySize=auto;html=1;exitX=0.5;exitY=0;exitDx=0;exitDy=0;entryX=0.5;entryY=0;entryDx=0;entryDy=0;" edge="1" parent="1" source="tz5j9JFFTCA-K_ZaOIbP-35" target="tz5j9JFFTCA-K_ZaOIbP-2">
          <mxGeometry relative="1" as="geometry">
            <Array as="points">
              <mxPoint x="580" y="650" />
              <mxPoint x="180" y="650" />
            </Array>
          </mxGeometry>
        </mxCell>
        <mxCell id="tz5j9JFFTCA-K_ZaOIbP-84" style="edgeStyle=orthogonalEdgeStyle;rounded=0;orthogonalLoop=1;jettySize=auto;html=1;exitX=1;exitY=0.5;exitDx=0;exitDy=0;entryX=0;entryY=0.5;entryDx=0;entryDy=0;" edge="1" parent="1" source="tz5j9JFFTCA-K_ZaOIbP-35" target="tz5j9JFFTCA-K_ZaOIbP-36">
          <mxGeometry relative="1" as="geometry" />
        </mxCell>
        <mxCell id="tz5j9JFFTCA-K_ZaOIbP-35" value="Detalles proveedor" style="rounded=1;whiteSpace=wrap;html=1;" vertex="1" parent="1">
          <mxGeometry x="520" y="660" width="120" height="60" as="geometry" />
        </mxCell>
        <mxCell id="tz5j9JFFTCA-K_ZaOIbP-85" style="edgeStyle=orthogonalEdgeStyle;rounded=0;orthogonalLoop=1;jettySize=auto;html=1;exitX=0;exitY=0.75;exitDx=0;exitDy=0;entryX=1;entryY=0.75;entryDx=0;entryDy=0;" edge="1" parent="1" source="tz5j9JFFTCA-K_ZaOIbP-36" target="tz5j9JFFTCA-K_ZaOIbP-35">
          <mxGeometry relative="1" as="geometry" />
        </mxCell>
        <mxCell id="tz5j9JFFTCA-K_ZaOIbP-36" value="Editar proveedor" style="rounded=1;whiteSpace=wrap;html=1;" vertex="1" parent="1">
          <mxGeometry x="720" y="660" width="120" height="60" as="geometry" />
        </mxCell>
        <mxCell id="tz5j9JFFTCA-K_ZaOIbP-76" style="edgeStyle=orthogonalEdgeStyle;rounded=0;orthogonalLoop=1;jettySize=auto;html=1;exitX=0;exitY=0.75;exitDx=0;exitDy=0;entryX=1;entryY=0.75;entryDx=0;entryDy=0;" edge="1" parent="1" source="tz5j9JFFTCA-K_ZaOIbP-38" target="tz5j9JFFTCA-K_ZaOIbP-16">
          <mxGeometry relative="1" as="geometry" />
        </mxCell>
        <mxCell id="tz5j9JFFTCA-K_ZaOIbP-38" value="Editar perfil" style="rounded=1;whiteSpace=wrap;html=1;" vertex="1" parent="1">
          <mxGeometry x="320" y="760" width="120" height="60" as="geometry" />
        </mxCell>
        <mxCell id="tz5j9JFFTCA-K_ZaOIbP-60" style="edgeStyle=orthogonalEdgeStyle;rounded=0;orthogonalLoop=1;jettySize=auto;html=1;exitX=1;exitY=0.5;exitDx=0;exitDy=0;entryX=0;entryY=0.5;entryDx=0;entryDy=0;" edge="1" parent="1" source="tz5j9JFFTCA-K_ZaOIbP-55" target="tz5j9JFFTCA-K_ZaOIbP-56">
          <mxGeometry relative="1" as="geometry" />
        </mxCell>
        <mxCell id="tz5j9JFFTCA-K_ZaOIbP-79" style="edgeStyle=orthogonalEdgeStyle;rounded=0;orthogonalLoop=1;jettySize=auto;html=1;exitX=0.5;exitY=1;exitDx=0;exitDy=0;entryX=0.5;entryY=1;entryDx=0;entryDy=0;" edge="1" parent="1" source="tz5j9JFFTCA-K_ZaOIbP-55" target="tz5j9JFFTCA-K_ZaOIbP-19">
          <mxGeometry relative="1" as="geometry">
            <Array as="points">
              <mxPoint x="380" y="230" />
              <mxPoint x="780" y="230" />
            </Array>
          </mxGeometry>
        </mxCell>
        <mxCell id="tz5j9JFFTCA-K_ZaOIbP-55" value="TÃ©cnicas" style="rounded=1;whiteSpace=wrap;html=1;" vertex="1" parent="1">
          <mxGeometry x="320" y="160" width="120" height="60" as="geometry" />
        </mxCell>
        <mxCell id="tz5j9JFFTCA-K_ZaOIbP-61" style="edgeStyle=orthogonalEdgeStyle;rounded=0;orthogonalLoop=1;jettySize=auto;html=1;exitX=0;exitY=0.75;exitDx=0;exitDy=0;entryX=1;entryY=0.75;entryDx=0;entryDy=0;" edge="1" parent="1" source="tz5j9JFFTCA-K_ZaOIbP-56" target="tz5j9JFFTCA-K_ZaOIbP-55">
          <mxGeometry relative="1" as="geometry" />
        </mxCell>
        <mxCell id="tz5j9JFFTCA-K_ZaOIbP-56" value="AÃ±adir tÃ©cnica" style="rounded=1;whiteSpace=wrap;html=1;" vertex="1" parent="1">
          <mxGeometry x="520" y="160" width="120" height="60" as="geometry" />
        </mxCell>
        <mxCell id="tz5j9JFFTCA-K_ZaOIbP-63" value="Todas las pÃ¡ginas (habiendo iniciado sesiÃ³n)" style="text;html=1;strokeColor=none;fillColor=none;align=center;verticalAlign=middle;whiteSpace=wrap;rounded=0;" vertex="1" parent="1">
          <mxGeometry x="-35" y="180" width="100" height="20" as="geometry" />
        </mxCell>
        <mxCell id="tz5j9JFFTCA-K_ZaOIbP-65" style="edgeStyle=orthogonalEdgeStyle;rounded=0;orthogonalLoop=1;jettySize=auto;html=1;exitX=1;exitY=0.5;exitDx=0;exitDy=0;entryX=0;entryY=0.5;entryDx=0;entryDy=0;" edge="1" parent="1" source="tz5j9JFFTCA-K_ZaOIbP-64" target="tz5j9JFFTCA-K_ZaOIbP-1">
          <mxGeometry relative="1" as="geometry" />
        </mxCell>
        <mxCell id="tz5j9JFFTCA-K_ZaOIbP-64" value="Todas las pÃ¡ginas" style="text;html=1;strokeColor=none;fillColor=none;align=center;verticalAlign=middle;whiteSpace=wrap;rounded=0;" vertex="1" parent="1">
          <mxGeometry x="-20" y="80" width="70" height="20" as="geometry" />
        </mxCell>
        <mxCell id="tz5j9JFFTCA-K_ZaOIbP-72" style="edgeStyle=orthogonalEdgeStyle;rounded=0;orthogonalLoop=1;jettySize=auto;html=1;exitX=1;exitY=0.5;exitDx=0;exitDy=0;entryX=0;entryY=0.5;entryDx=0;entryDy=0;" edge="1" parent="1" source="tz5j9JFFTCA-K_ZaOIbP-71" target="tz5j9JFFTCA-K_ZaOIbP-15">
          <mxGeometry relative="1" as="geometry" />
        </mxCell>
        <mxCell id="tz5j9JFFTCA-K_ZaOIbP-71" value="Todas las pÃ¡ginas (habiendo iniciado sesiÃ³n)" style="text;html=1;strokeColor=none;fillColor=none;align=center;verticalAlign=middle;whiteSpace=wrap;rounded=0;" vertex="1" parent="1">
          <mxGeometry x="-45" y="880" width="120" height="20" as="geometry" />
        </mxCell>
        <mxCell id="tz5j9JFFTCA-K_ZaOIbP-74" style="edgeStyle=orthogonalEdgeStyle;rounded=0;orthogonalLoop=1;jettySize=auto;html=1;exitX=1;exitY=0.5;exitDx=0;exitDy=0;entryX=0;entryY=0.5;entryDx=0;entryDy=0;" edge="1" parent="1" source="tz5j9JFFTCA-K_ZaOIbP-73" target="tz5j9JFFTCA-K_ZaOIbP-16">
          <mxGeometry relative="1" as="geometry" />
        </mxCell>
        <mxCell id="tz5j9JFFTCA-K_ZaOIbP-73" value="Todas las pÃ¡ginas (habiendo iniciado sesiÃ³n)" style="text;html=1;strokeColor=none;fillColor=none;align=center;verticalAlign=middle;whiteSpace=wrap;rounded=0;" vertex="1" parent="1">
          <mxGeometry x="-50" y="780" width="130" height="20" as="geometry" />
        </mxCell>
        <mxCell id="tz5j9JFFTCA-K_ZaOIbP-110" style="edgeStyle=orthogonalEdgeStyle;rounded=0;orthogonalLoop=1;jettySize=auto;html=1;exitX=0;exitY=0.75;exitDx=0;exitDy=0;entryX=1;entryY=0.75;entryDx=0;entryDy=0;" edge="1" parent="1" source="tz5j9JFFTCA-K_ZaOIbP-107" target="tz5j9JFFTCA-K_ZaOIbP-21">
          <mxGeometry relative="1" as="geometry" />
        </mxCell>
        <mxCell id="tz5j9JFFTCA-K_ZaOIbP-107" value="Editar proyecto" style="rounded=1;whiteSpace=wrap;html=1;" vertex="1" parent="1">
          <mxGeometry x="720" y="360" width="120" height="60" as="geometry" />
        </mxCell>
        <mxCell id="tz5j9JFFTCA-K_ZaOIbP-112" style="edgeStyle=orthogonalEdgeStyle;rounded=0;orthogonalLoop=1;jettySize=auto;html=1;exitX=0.5;exitY=0;exitDx=0;exitDy=0;entryX=0.75;entryY=0;entryDx=0;entryDy=0;" edge="1" parent="1" source="tz5j9JFFTCA-K_ZaOIbP-108" target="tz5j9JFFTCA-K_ZaOIbP-21">
          <mxGeometry relative="1" as="geometry">
            <Array as="points">
              <mxPoint x="980" y="350" />
              <mxPoint x="610" y="350" />
            </Array>
          </mxGeometry>
        </mxCell>
        <mxCell id="tz5j9JFFTCA-K_ZaOIbP-115" style="edgeStyle=orthogonalEdgeStyle;rounded=0;orthogonalLoop=1;jettySize=auto;html=1;exitX=1;exitY=0.5;exitDx=0;exitDy=0;entryX=0;entryY=0.5;entryDx=0;entryDy=0;" edge="1" parent="1" source="tz5j9JFFTCA-K_ZaOIbP-108" target="tz5j9JFFTCA-K_ZaOIbP-113">
          <mxGeometry relative="1" as="geometry" />
        </mxCell>
        <mxCell id="tz5j9JFFTCA-K_ZaOIbP-117" style="edgeStyle=orthogonalEdgeStyle;rounded=0;orthogonalLoop=1;jettySize=auto;html=1;exitX=0.75;exitY=1;exitDx=0;exitDy=0;entryX=0.5;entryY=1;entryDx=0;entryDy=0;" edge="1" parent="1" source="tz5j9JFFTCA-K_ZaOIbP-108" target="tz5j9JFFTCA-K_ZaOIbP-114">
          <mxGeometry relative="1" as="geometry">
            <Array as="points">
              <mxPoint x="1010" y="430" />
              <mxPoint x="1380" y="430" />
            </Array>
          </mxGeometry>
        </mxCell>
        <mxCell id="tz5j9JFFTCA-K_ZaOIbP-108" value="Partidas de proyecto" style="rounded=1;whiteSpace=wrap;html=1;" vertex="1" parent="1">
          <mxGeometry x="920" y="360" width="120" height="60" as="geometry" />
        </mxCell>
        <mxCell id="tz5j9JFFTCA-K_ZaOIbP-116" style="edgeStyle=orthogonalEdgeStyle;rounded=0;orthogonalLoop=1;jettySize=auto;html=1;exitX=0;exitY=0.75;exitDx=0;exitDy=0;entryX=1;entryY=0.75;entryDx=0;entryDy=0;" edge="1" parent="1" source="tz5j9JFFTCA-K_ZaOIbP-113" target="tz5j9JFFTCA-K_ZaOIbP-108">
          <mxGeometry relative="1" as="geometry" />
        </mxCell>
        <mxCell id="tz5j9JFFTCA-K_ZaOIbP-113" value="AÃ±adir partida" style="rounded=1;whiteSpace=wrap;html=1;" vertex="1" parent="1">
          <mxGeometry x="1120" y="360" width="120" height="60" as="geometry" />
        </mxCell>
        <mxCell id="tz5j9JFFTCA-K_ZaOIbP-118" style="edgeStyle=orthogonalEdgeStyle;rounded=0;orthogonalLoop=1;jettySize=auto;html=1;exitX=0.5;exitY=0;exitDx=0;exitDy=0;entryX=0.75;entryY=0;entryDx=0;entryDy=0;" edge="1" parent="1" source="tz5j9JFFTCA-K_ZaOIbP-114" target="tz5j9JFFTCA-K_ZaOIbP-108">
          <mxGeometry relative="1" as="geometry">
            <Array as="points">
              <mxPoint x="1380" y="350" />
              <mxPoint x="1010" y="350" />
            </Array>
          </mxGeometry>
        </mxCell>
        <mxCell id="tz5j9JFFTCA-K_ZaOIbP-114" value="Editar partida" style="rounded=1;whiteSpace=wrap;html=1;" vertex="1" parent="1">
          <mxGeometry x="1320" y="360" width="120" height="60" as="geometry" />
        </mxCell>
      </root>
    </mxGraphModel>
  </diagram>
</mxfile>
